# xmcd CD database file
#
# Track frame offsets:
#	150
#	32150
#	74785
#	119002
#	121325
#	155685
#	183467
#	242185
#
# Disc length: 3677 seconds
#
# Revision: 0
# Processed by: cddbd v1.5.2PL0 Copyright (c) Steve Scherf et al.
# Submitted via: CDex 1.70beta2
#
DISCID=7a0e5b08
DTITLE=Rryu - Findhorn Sketches
DYEAR=1999
DGENRE=New Age
TTITLE0=Dawn At Minton Beach
TTITLE1=White Cat In The Garden
TTITLE2=On Her Beach, She Loves Life-Moray Version-
TTITLE3=Talkin' and Choppin'
TTITLE4=Wandering Together
TTITLE5=In Evening Nature Sanctuary
TTITLE6=Secret Key To Wellspring
TTITLE7=Hall Tone Fairies
EXTD=YEAR: 1999
EXTT0=
EXTT1=
EXTT2=
EXTT3=
EXTT4=
EXTT5=
EXTT6=
EXTT7=
PLAYORDER=
